<svg width="33mm" height="33mm" version="1.1" viewBox="0 0 33 33" xmlns="http://www.w3.org/2000/svg">
 <g transform="translate(-94.161 -137.34)">
  <g fill="#ff4088">
   <path d="m97.313 141.78-0.56966-3.8168 21.658 1.6171-0.16951 2.1997-9.4314-0.0666 0.50168 26.28-4.5599 1.7207 1.5007-27.934z" style="font-variant-caps:normal;font-variant-east-asian:normal;font-variant-ligatures:normal;font-variant-numeric:normal"/>
   <path d="m113.64 169.4 0.72763-24.746 2.1922 0.0209v5.8704c0.64768-1.4332 1.68-2.4393 2.0245-2.9768 1.3505-2.0946 3.1006-3.1419 5.2503-3.1419 0.16536 0 0.41341 0.0138 0.74414 0.0413v2.3151c-0.93708 0.12403-1.7157 0.30317-2.3358 0.53744-0.62011 0.22049-1.2264 0.57878-1.819 1.0749-1.0335 0.85438-2.6791 2.5771-3.8642 5.1265l0.53626 14.575z" style="font-variant-caps:normal;font-variant-east-asian:normal;font-variant-ligatures:normal;font-variant-numeric:normal"/>
  </g>
 </g>
</svg>
